<?xml version="1.0" encoding="UTF-8"?>
<svg xmlns="http://www.w3.org/2000/svg" xmlns:xlink="http://www.w3.org/1999/xlink" viewBox="0 0 48 48" width="48px" height="48px">
<g id="surface19986362">
<path style=" stroke:none;fill-rule:nonzero;fill:rgb(90.196079%,31.764707%,0%);fill-opacity:1;" d="M 35.898438 10.699219 L 12.101562 10.699219 L 14.199219 34.5 L 24 37.300781 L 33.800781 34.5 Z M 35.898438 10.699219 "/>
<path style=" stroke:none;fill-rule:nonzero;fill:rgb(100%,42.745098%,0%);fill-opacity:1;" d="M 24 12.800781 L 24 35.128906 L 31.839844 32.890625 L 33.589844 12.800781 Z M 24 12.800781 "/>
<path style=" stroke:none;fill-rule:nonzero;fill:rgb(100%,100%,100%);fill-opacity:1;" d="M 24 24.699219 L 24 21.898438 L 30.019531 21.898438 L 29.53125 29.949219 L 24 31.769531 L 24 28.828125 L 26.871094 27.851562 L 27.078125 24.699219 Z M 30.230469 19.101562 L 30.441406 16.300781 L 24 16.300781 L 24 19.101562 Z M 30.230469 19.101562 "/>
<path style=" stroke:none;fill-rule:nonzero;fill:rgb(93.333334%,93.333334%,93.333334%);fill-opacity:1;" d="M 24 28.828125 L 24 31.769531 L 18.46875 29.949219 L 18.191406 26.101562 L 20.988281 26.101562 L 21.128906 27.851562 Z M 20.570312 19.101562 L 24 19.101562 L 24 16.300781 L 17.628906 16.300781 L 18.121094 24.699219 L 24 24.699219 L 24 21.898438 L 20.78125 21.898438 Z M 20.570312 19.101562 "/>
</g>
</svg>
